<svg width="6" height="8" viewBox="0 0 6 8" fill="none" xmlns="http://www.w3.org/2000/svg">
<path d="M4.45909 7.54199C4.37697 7.54237 4.2956 7.52636 4.21976 7.49487C4.14391 7.46339 4.07512 7.41708 4.01742 7.35865L1.10075 4.44199C0.98371 4.3248 0.917969 4.16595 0.917969 4.00032C0.917969 3.83469 0.98371 3.67584 1.10075 3.55865L4.01742 0.666987C4.13488 0.590828 4.27452 0.55631 4.41394 0.568966C4.55336 0.581623 4.68449 0.64072 4.78632 0.736786C4.88815 0.832852 4.95478 0.960324 4.97553 1.09877C4.99628 1.23722 4.96994 1.37862 4.90075 1.50032L2.40075 4.00032L4.90075 6.50032C5.01779 6.61751 5.08354 6.77636 5.08354 6.94199C5.08354 7.10761 5.01779 7.26646 4.90075 7.38365C4.78014 7.49256 4.62142 7.54946 4.45909 7.54199Z" fill="#485066"/>
</svg>
