<svg width="16" height="16" viewBox="0 0 16 16" fill="none" xmlns="http://www.w3.org/2000/svg">
<path d="M10.3325 9.66688C10.2668 9.66719 10.2017 9.65437 10.141 9.62919C10.0803 9.604 10.0253 9.56695 9.97914 9.52021L7.97914 7.52021L5.97914 9.52021C5.88229 9.56698 5.77294 9.58127 5.66733 9.56097C5.56171 9.54066 5.46546 9.48685 5.39285 9.4075C5.32025 9.32816 5.27516 9.22752 5.26428 9.12053C5.25341 9.01353 5.27732 8.90587 5.33247 8.81354L7.66581 6.48021C7.75956 6.38658 7.88664 6.33398 8.01914 6.33398C8.15164 6.33398 8.27872 6.38658 8.37247 6.48021L10.7058 8.81354C10.7994 8.9073 10.852 9.03438 10.852 9.16688C10.852 9.29938 10.7994 9.42646 10.7058 9.52021C10.6573 9.56944 10.599 9.60793 10.5347 9.6332C10.4704 9.65847 10.4015 9.66994 10.3325 9.66688Z" fill="#004B85"/>
</svg>
