<svg width="17" height="16" viewBox="0 0 17 16" fill="none" xmlns="http://www.w3.org/2000/svg">
<path d="M8.50104 9.66705C8.43534 9.66736 8.37025 9.65455 8.30958 9.62936C8.2489 9.60417 8.19387 9.56712 8.1477 9.52038L5.83437 7.18705C5.77344 7.09308 5.74583 6.98137 5.75595 6.86984C5.76608 6.7583 5.81336 6.65339 5.89021 6.57193C5.96706 6.49047 6.06904 6.43716 6.1798 6.42056C6.29056 6.40396 6.40368 6.42503 6.50104 6.48038L8.50104 8.48038L10.501 6.48038C10.5984 6.42503 10.7115 6.40396 10.8223 6.42056C10.933 6.43716 11.035 6.49047 11.1119 6.57193C11.1887 6.65339 11.236 6.7583 11.2461 6.86984C11.2562 6.98137 11.2286 7.09308 11.1677 7.18705L8.83437 9.52038C8.74603 9.60999 8.62679 9.66246 8.50104 9.66705Z" fill="#6D6E70"/>
</svg>
