<svg width="6" height="8" viewBox="0 0 6 8" fill="none" xmlns="http://www.w3.org/2000/svg">
<path d="M1.54242 7.54164C1.45849 7.53881 1.37603 7.51888 1.30008 7.48305C1.22414 7.44723 1.15631 7.39627 1.10075 7.3333C0.98371 7.21612 0.917969 7.05726 0.917969 6.89164C0.917969 6.72601 0.98371 6.56716 1.10075 6.44997L3.60075 3.94997L1.10075 1.44997C1.05132 1.32996 1.04047 1.19754 1.06971 1.07108C1.09896 0.944627 1.16685 0.830413 1.26396 0.744297C1.36107 0.658181 1.48258 0.604434 1.61163 0.590518C1.74067 0.576601 1.87085 0.603205 1.98409 0.666636L4.90075 3.5833C5.01779 3.70049 5.08354 3.85934 5.08354 4.02497C5.08354 4.1906 5.01779 4.34945 4.90075 4.46664L1.98409 7.3333C1.92853 7.39627 1.8607 7.44723 1.78475 7.48305C1.70881 7.51888 1.62634 7.53881 1.54242 7.54164Z" fill="#485066"/>
</svg>
