<svg width="32" height="32" viewBox="0 0 32 32" fill="none" xmlns="http://www.w3.org/2000/svg">
<path d="M14.786 28.6667C14.6802 28.686 14.5717 28.686 14.466 28.6667C14.2351 28.597 14.0332 28.4538 13.8912 28.2588C13.7492 28.0639 13.6748 27.8279 13.6793 27.5867V27.44L14.8793 18.9734H9.09262C8.89748 18.9735 8.70603 18.9202 8.53911 18.8191C8.37219 18.718 8.2362 18.5731 8.14595 18.4C8.04399 18.2262 7.99023 18.0283 7.99023 17.8267C7.99023 17.6251 8.04399 17.4272 8.14595 17.2534L10.8126 12.6L16.2793 3.9067C16.4008 3.70158 16.5882 3.54374 16.8111 3.45897C17.0339 3.37421 17.2789 3.36753 17.506 3.44004C17.7369 3.50974 17.9387 3.65296 18.0807 3.84792C18.2227 4.04287 18.2971 4.27889 18.2926 4.52004V4.6667L17.0926 13.1334H22.8926C23.0878 13.1332 23.2792 13.1866 23.4461 13.2877C23.613 13.3887 23.749 13.5337 23.8393 13.7067C23.9412 13.8806 23.995 14.0785 23.995 14.28C23.995 14.4816 23.9412 14.6795 23.8393 14.8534L21.1726 19.5067L15.706 28.2C15.6055 28.3502 15.4681 28.472 15.307 28.5537C15.1459 28.6354 14.9664 28.6743 14.786 28.6667ZM10.5726 16.92H15.906C16.053 16.9218 16.1983 16.9525 16.3336 17.0104C16.4688 17.0683 16.5913 17.1522 16.694 17.2575C16.7968 17.3627 16.8778 17.4872 16.9325 17.6237C16.9872 17.7603 17.0144 17.9063 17.0126 18.0534V18.2L16.226 23.72L19.5593 18.3867L21.4793 15.08H16.146C15.9989 15.0783 15.8536 15.0476 15.7183 14.9897C15.5831 14.9318 15.4606 14.8478 15.3579 14.7426C15.2551 14.6373 15.1741 14.5129 15.1194 14.3763C15.0648 14.2398 15.0375 14.0938 15.0393 13.9467V13.8L15.826 8.28004L12.4926 13.6134L10.5726 16.92Z" fill="#007BFF"/>
</svg>
