<svg width="32" height="32" viewBox="0 0 32 32" fill="none" xmlns="http://www.w3.org/2000/svg">
<path d="M14.786 28.6662C14.6802 28.6855 14.5717 28.6855 14.466 28.6662C14.2351 28.5965 14.0332 28.4533 13.8912 28.2583C13.7492 28.0634 13.6748 27.8274 13.6793 27.5862V27.4395L14.8793 18.9729H9.09262C8.89748 18.9731 8.70603 18.9197 8.53911 18.8186C8.37219 18.7175 8.2362 18.5726 8.14595 18.3995C8.04399 18.2257 7.99023 18.0278 7.99023 17.8262C7.99023 17.6247 8.04399 17.4267 8.14595 17.2529L10.8126 12.5995L16.2793 3.90621C16.4008 3.7011 16.5882 3.54325 16.8111 3.45849C17.0339 3.37372 17.2789 3.36704 17.506 3.43955C17.7369 3.50925 17.9387 3.65247 18.0807 3.84743C18.2227 4.04239 18.2971 4.2784 18.2926 4.51955V4.66621L17.0926 13.1329H22.8926C23.0878 13.1327 23.2792 13.1861 23.4461 13.2872C23.613 13.3883 23.749 13.5332 23.8393 13.7062C23.9412 13.8801 23.995 14.078 23.995 14.2795C23.995 14.4811 23.9412 14.679 23.8393 14.8529L21.1726 19.5062L15.706 28.1995C15.6055 28.3497 15.4681 28.4715 15.307 28.5532C15.1459 28.6349 14.9664 28.6739 14.786 28.6662ZM10.5726 16.9195H15.906C16.053 16.9213 16.1983 16.952 16.3336 17.0099C16.4688 17.0678 16.5913 17.1517 16.694 17.257C16.7968 17.3622 16.8778 17.4867 16.9325 17.6232C16.9872 17.7598 17.0144 17.9058 17.0126 18.0529V18.1995L16.226 23.7195L19.5593 18.3862L21.4793 15.0795H16.146C15.9989 15.0778 15.8536 15.0471 15.7183 14.9892C15.5831 14.9313 15.4606 14.8473 15.3579 14.7421C15.2551 14.6369 15.1741 14.5124 15.1194 14.3758C15.0648 14.2393 15.0375 14.0933 15.0393 13.9462V13.7995L15.826 8.27955L12.4926 13.6129L10.5726 16.9195Z" fill="#007BFF"/>
</svg>
