<svg width="32" height="32" viewBox="0 0 32 32" fill="none" xmlns="http://www.w3.org/2000/svg">
<path d="M6 27C5.73586 26.9965 5.4835 26.8901 5.29671 26.7033C5.10992 26.5165 5.00345 26.2641 5 26V6C5 5.73478 5.10536 5.48043 5.29289 5.29289C5.48043 5.10536 5.73478 5 6 5C6.26522 5 6.51957 5.10536 6.70711 5.29289C6.89464 5.48043 7 5.73478 7 6V26C6.99655 26.2641 6.89008 26.5165 6.70329 26.7033C6.5165 26.8901 6.26414 26.9965 6 27Z" fill="#007BFF"/>
<path d="M26 27H6C5.73478 27 5.48043 26.8946 5.29289 26.7071C5.10536 26.5196 5 26.2652 5 26C5 25.7348 5.10536 25.4804 5.29289 25.2929C5.48043 25.1054 5.73478 25 6 25H26C26.2652 25 26.5196 25.1054 26.7071 25.2929C26.8946 25.4804 27 25.7348 27 26C27 26.2652 26.8946 26.5196 26.7071 26.7071C26.5196 26.8946 26.2652 27 26 27Z" fill="#007BFF"/>
<path d="M10.668 22.3333C10.4038 22.3299 10.1515 22.2234 9.96468 22.0366C9.77789 21.8498 9.67142 21.5975 9.66797 21.3333V16C9.66797 15.7348 9.77333 15.4804 9.96086 15.2929C10.1484 15.1054 10.4028 15 10.668 15C10.9332 15 11.1875 15.1054 11.3751 15.2929C11.5626 15.4804 11.668 15.7348 11.668 16V21.3333C11.6645 21.5975 11.558 21.8498 11.3713 22.0366C11.1845 22.2234 10.9321 22.3299 10.668 22.3333Z" fill="#007BFF"/>
<path d="M15.332 22.3333C15.0679 22.3298 14.8155 22.2234 14.6287 22.0366C14.442 21.8498 14.3355 21.5974 14.332 21.3333V10.6666C14.332 10.4014 14.4374 10.1471 14.6249 9.95952C14.8125 9.77198 15.0668 9.66663 15.332 9.66663C15.5972 9.66663 15.8516 9.77198 16.0391 9.95952C16.2267 10.1471 16.332 10.4014 16.332 10.6666V21.3333C16.3286 21.5974 16.2221 21.8498 16.0353 22.0366C15.8485 22.2234 15.5962 22.3298 15.332 22.3333Z" fill="#007BFF"/>
<path d="M20 22.3333C19.7359 22.3299 19.4835 22.2234 19.2967 22.0366C19.1099 21.8498 19.0035 21.5975 19 21.3333V16C19 15.7348 19.1054 15.4804 19.2929 15.2929C19.4804 15.1054 19.7348 15 20 15C20.2652 15 20.5196 15.1054 20.7071 15.2929C20.8946 15.4804 21 15.7348 21 16V21.3333C20.9965 21.5975 20.8901 21.8498 20.7033 22.0366C20.5165 22.2234 20.2641 22.3299 20 22.3333Z" fill="#007BFF"/>
<path d="M24.668 22.3333C24.4038 22.3298 24.1515 22.2234 23.9647 22.0366C23.7779 21.8498 23.6714 21.5974 23.668 21.3333V10.6666C23.668 10.4014 23.7733 10.1471 23.9609 9.95952C24.1484 9.77198 24.4028 9.66663 24.668 9.66663C24.9332 9.66663 25.1875 9.77198 25.3751 9.95952C25.5626 10.1471 25.668 10.4014 25.668 10.6666V21.3333C25.6645 21.5974 25.558 21.8498 25.3713 22.0366C25.1845 22.2234 24.9321 22.3298 24.668 22.3333Z" fill="#007BFF"/>
</svg>
