<svg width="32" height="32" viewBox="0 0 32 32" fill="none" xmlns="http://www.w3.org/2000/svg">
<path d="M6 27C5.73586 26.9965 5.4835 26.8901 5.29671 26.7033C5.10992 26.5165 5.00345 26.2641 5 26V6C5 5.73478 5.10536 5.48043 5.29289 5.29289C5.48043 5.10536 5.73478 5 6 5C6.26522 5 6.51957 5.10536 6.70711 5.29289C6.89464 5.48043 7 5.73478 7 6V26C6.99655 26.2641 6.89008 26.5165 6.70329 26.7033C6.5165 26.8901 6.26414 26.9965 6 27Z" fill="#007BFF"/>
<path d="M26 27H6C5.73478 27 5.48043 26.8946 5.29289 26.7071C5.10536 26.5196 5 26.2652 5 26C5 25.7348 5.10536 25.4804 5.29289 25.2929C5.48043 25.1054 5.73478 25 6 25H26C26.2652 25 26.5196 25.1054 26.7071 25.2929C26.8946 25.4804 27 25.7348 27 26C27 26.2652 26.8946 26.5196 26.7071 26.7071C26.5196 26.8946 26.2652 27 26 27Z" fill="#007BFF"/>
<path d="M18.6665 19.6668C18.5351 19.6674 18.4049 19.6418 18.2835 19.5914C18.1622 19.541 18.0521 19.4669 17.9598 19.3735L14.6665 16.0801L11.3731 19.3735C11.1836 19.5501 10.9328 19.6463 10.6738 19.6417C10.4147 19.6371 10.1675 19.5322 9.9843 19.349C9.80108 19.1657 9.69613 18.9186 9.69156 18.6595C9.68699 18.4004 9.78316 18.1497 9.95979 17.9601L13.9598 13.9601C14.1473 13.7729 14.4015 13.6677 14.6665 13.6677C14.9315 13.6677 15.1856 13.7729 15.3731 13.9601L18.6665 17.2535L23.2931 12.6268C23.4827 12.4501 23.7334 12.354 23.9925 12.3586C24.2516 12.3631 24.4987 12.4681 24.682 12.6513C24.8652 12.8345 24.9701 13.0817 24.9747 13.3408C24.9793 13.5998 24.8831 13.8506 24.7065 14.0401L19.3731 19.3735C19.2808 19.4669 19.1707 19.541 19.0494 19.5914C18.928 19.6418 18.7978 19.6674 18.6665 19.6668Z" fill="#007BFF"/>
<path d="M24.6667 18.4537C24.4025 18.4502 24.1502 18.3437 23.9634 18.1569C23.7766 17.9702 23.6701 17.7178 23.6667 17.4537V13.667H20C19.7348 13.667 19.4804 13.5616 19.2929 13.3741C19.1054 13.1866 19 12.9322 19 12.667C19 12.4018 19.1054 12.1474 19.2929 11.9599C19.4804 11.7723 19.7348 11.667 20 11.667H24.6667C24.9308 11.6704 25.1832 11.7769 25.37 11.9637C25.5567 12.1505 25.6632 12.4028 25.6667 12.667V17.4537C25.6632 17.7178 25.5567 17.9702 25.37 18.1569C25.1832 18.3437 24.9308 18.4502 24.6667 18.4537Z" fill="#007BFF"/>
</svg>
