<svg width="16" height="16" viewBox="0 0 16 16" fill="none" xmlns="http://www.w3.org/2000/svg">
<path d="M7.00031 10.1668C6.87168 10.157 6.75203 10.0972 6.66698 10.0002L4.66698 8.00015C4.62242 7.90685 4.60788 7.80203 4.62537 7.70012C4.64285 7.59821 4.6915 7.50423 4.76461 7.43112C4.83772 7.358 4.93171 7.30935 5.03361 7.29187C5.13552 7.27438 5.24034 7.28892 5.33365 7.33348L6.98031 8.98015L12.667 3.33348C12.7603 3.28892 12.8651 3.27438 12.967 3.29187C13.0689 3.30935 13.1629 3.358 13.236 3.43112C13.3091 3.50423 13.3578 3.59821 13.3753 3.70012C13.3927 3.80203 13.3782 3.90685 13.3336 4.00015L7.33365 10.0002C7.2486 10.0972 7.12894 10.157 7.00031 10.1668Z" fill="white"/>
<path d="M8.00007 14.0001C6.92772 13.9983 5.87542 13.7092 4.95269 13.1629C4.02996 12.6165 3.27052 11.8328 2.75341 10.8934C2.36033 10.1934 2.11739 9.41915 2.04007 8.62006C1.91806 7.44811 2.14381 6.26618 2.68917 5.2217C3.23453 4.17722 4.07535 3.31644 5.10674 2.74672C5.80675 2.35365 6.58098 2.11071 7.38007 2.03339C8.17617 1.94776 8.98137 2.02487 9.74674 2.26006C9.81504 2.27371 9.87975 2.30147 9.93669 2.34158C9.99364 2.38169 10.0416 2.43326 10.0774 2.49298C10.1133 2.5527 10.1363 2.61925 10.1449 2.68836C10.1536 2.75748 10.1477 2.82764 10.1276 2.89435C10.1075 2.96105 10.0738 3.02283 10.0284 3.07572C9.98311 3.12861 9.92724 3.17145 9.86439 3.20149C9.80154 3.23153 9.73311 3.2481 9.66349 3.25015C9.59386 3.2522 9.52458 3.23968 9.46007 3.21339C8.81248 3.01867 8.13252 2.95521 7.46007 3.02672C6.7954 3.09478 6.15137 3.29661 5.56674 3.62006C5.00349 3.93079 4.5055 4.3473 4.10007 4.84672C3.68265 5.3555 3.37094 5.94245 3.1832 6.5732C2.99546 7.20396 2.93547 7.86583 3.00674 8.52006C3.0748 9.18473 3.27663 9.82876 3.60007 10.4134C3.91081 10.9766 4.32731 11.4746 4.82674 11.8801C5.33551 12.2975 5.92246 12.6092 6.55322 12.7969C7.18397 12.9847 7.84584 13.0447 8.50007 12.9734C9.16474 12.9053 9.80877 12.7035 10.3934 12.3801C10.9567 12.0693 11.4546 11.6528 11.8601 11.1534C12.2775 10.6446 12.5892 10.0577 12.7769 9.42691C12.9647 8.79616 13.0247 8.13429 12.9534 7.48006C12.9468 7.41133 12.9539 7.34199 12.9741 7.27598C12.9943 7.20997 13.0274 7.1486 13.0713 7.09536C13.1153 7.04212 13.1693 6.99806 13.2303 6.9657C13.2913 6.93333 13.358 6.91329 13.4267 6.90672C13.4955 6.90016 13.5648 6.90719 13.6308 6.92743C13.6968 6.94766 13.7582 6.9807 13.8114 7.02465C13.8647 7.0686 13.9087 7.12261 13.9411 7.18359C13.9735 7.24457 13.9935 7.31133 14.0001 7.38006C14.1215 8.5527 13.8947 9.73513 13.3481 10.7797C12.8016 11.8242 11.9594 12.6846 10.9267 13.2534C10.2193 13.6626 9.4331 13.917 8.62007 14.0001C8.41341 14.0001 8.20007 14.0001 8.00007 14.0001Z" fill="white"/>
</svg>
