<svg width="24" height="24" viewBox="0 0 24 24" fill="none" xmlns="http://www.w3.org/2000/svg">
<path d="M9.99934 17.7498C9.9008 17.7503 9.80316 17.7311 9.71215 17.6933C9.62113 17.6555 9.53858 17.6 9.46934 17.5298C9.32889 17.3892 9.25 17.1986 9.25 16.9998C9.25 16.8011 9.32889 16.6105 9.46934 16.4698L13.9393 11.9998L9.46934 7.52985C9.33686 7.38767 9.26474 7.19963 9.26816 7.00532C9.27159 6.81102 9.35031 6.62564 9.48772 6.48822C9.62513 6.35081 9.81052 6.2721 10.0048 6.26867C10.1991 6.26524 10.3872 6.33737 10.5293 6.46985L15.5293 11.4698C15.6698 11.6105 15.7487 11.8011 15.7487 11.9998C15.7487 12.1986 15.6698 12.3892 15.5293 12.5298L10.5293 17.5298C10.4601 17.6 10.3775 17.6555 10.2865 17.6933C10.1955 17.7311 10.0979 17.7503 9.99934 17.7498Z" fill="#007BFF"/>
</svg>
