<svg width="16" height="16" viewBox="0 0 16 16" fill="none" xmlns="http://www.w3.org/2000/svg">
<path d="M12.3533 6.00033L8.66667 2.31366C8.57299 2.21986 8.4459 2.16711 8.31333 2.16699H5.33333C4.8471 2.16699 4.38079 2.36015 4.03697 2.70396C3.69315 3.04778 3.5 3.5141 3.5 4.00033V12.0003C3.5 12.4866 3.69315 12.9529 4.03697 13.2967C4.38079 13.6405 4.8471 13.8337 5.33333 13.8337H10.6667C11.1529 13.8337 11.6192 13.6405 11.963 13.2967C12.3068 12.9529 12.5 12.4866 12.5 12.0003V6.33366C12.4948 6.20806 12.4424 6.08905 12.3533 6.00033ZM8.83333 3.87366L10.7933 5.83366H8.83333V3.87366ZM10.6667 12.8337H5.33333C5.11232 12.8337 4.90036 12.7459 4.74408 12.5896C4.5878 12.4333 4.5 12.2213 4.5 12.0003V4.00033C4.5 3.77931 4.5878 3.56735 4.74408 3.41107C4.90036 3.25479 5.11232 3.16699 5.33333 3.16699H7.83333V6.33366C7.83506 6.46573 7.88829 6.59191 7.98169 6.6853C8.07509 6.7787 8.20126 6.83193 8.33333 6.83366H11.5V12.0003C11.5 12.2213 11.4122 12.4333 11.2559 12.5896C11.0996 12.7459 10.8877 12.8337 10.6667 12.8337Z" fill="white"/>
<path d="M9.64792 7.94061C9.5426 7.86012 9.41021 7.82349 9.27849 7.83841C9.14677 7.85332 9.02593 7.91861 8.94126 8.02061L8.00126 9.20061L7.06126 8.00061C7.01748 7.94895 6.96396 7.90643 6.90375 7.87546C6.84355 7.84449 6.77783 7.82568 6.71035 7.82011C6.64287 7.81454 6.57496 7.82231 6.51049 7.84298C6.44601 7.86366 6.38624 7.89683 6.33459 7.94061C6.28294 7.98438 6.24041 8.0379 6.20944 8.09811C6.17847 8.15832 6.15966 8.22404 6.15409 8.29151C6.14852 8.35899 6.15629 8.4269 6.17697 8.49138C6.19764 8.55585 6.23082 8.61562 6.27459 8.66727L7.33459 10.0006L6.27459 11.3339C6.19149 11.4383 6.15323 11.5713 6.16823 11.7038C6.18324 11.8364 6.25027 11.9575 6.35459 12.0406C6.45891 12.1237 6.59197 12.162 6.72449 12.147C6.85702 12.132 6.97816 12.0649 7.06126 11.9606L8.00126 10.8006L8.94126 12.0006C8.98913 12.0586 9.04918 12.1054 9.11715 12.1377C9.18512 12.17 9.25935 12.1869 9.33459 12.1873C9.43683 12.1957 9.5392 12.1726 9.62782 12.1209C9.71643 12.0692 9.787 11.9915 9.82995 11.8983C9.87289 11.8051 9.88614 11.701 9.86789 11.6C9.84964 11.4991 9.80077 11.4062 9.72792 11.3339L8.66792 10.0006L9.75459 8.66727C9.79608 8.61286 9.82627 8.55069 9.84339 8.48444C9.8605 8.41819 9.8642 8.34918 9.85426 8.28148C9.84433 8.21378 9.82095 8.14874 9.78552 8.0902C9.75008 8.03167 9.7033 7.9808 9.64792 7.94061Z" fill="white"/>
</svg>
