<svg width="16" height="16" viewBox="0 0 16 16" fill="none" xmlns="http://www.w3.org/2000/svg">
<path d="M9.33425 13.6668H6.66758C6.53551 13.6651 6.40933 13.6119 6.31594 13.5185C6.22254 13.4251 6.16931 13.2989 6.16758 13.1668V8.00016L2.60091 3.12683C2.54454 3.05354 2.51021 2.96571 2.50195 2.87362C2.49368 2.78153 2.51182 2.68898 2.55425 2.60683C2.59675 2.52491 2.66081 2.45615 2.73953 2.40798C2.81825 2.35981 2.90863 2.33406 3.00091 2.3335H13.0009C13.0932 2.33406 13.1836 2.35981 13.2623 2.40798C13.341 2.45615 13.4051 2.52491 13.4476 2.60683C13.49 2.68898 13.5081 2.78153 13.4999 2.87362C13.4916 2.96571 13.4573 3.05354 13.4009 3.12683L9.83425 8.00016V13.1668C9.83252 13.2989 9.77929 13.4251 9.68589 13.5185C9.59249 13.6119 9.46632 13.6651 9.33425 13.6668ZM7.16758 12.6668H8.83425V7.8335C8.83372 7.72727 8.86894 7.62395 8.93425 7.54016L12.0009 3.3335H4.00091L7.08091 7.54016C7.14622 7.62395 7.18144 7.72727 7.18091 7.8335L7.16758 12.6668Z" fill="white"/>
</svg>
