<svg width="16" height="24" viewBox="0 0 16 24" fill="none" xmlns="http://www.w3.org/2000/svg">
<path d="M13.332 0.333008H2.66536C2.04761 0.336508 1.45614 0.583464 1.01932 1.02029C0.582488 1.45712 0.335531 2.04858 0.332031 2.66634V21.333C0.335531 21.9508 0.582488 22.5422 1.01932 22.9791C1.45614 23.4159 2.04761 23.6628 2.66536 23.6663H13.332C13.9498 23.6628 14.5413 23.4159 14.9781 22.9791C15.4149 22.5422 15.6619 21.9508 15.6654 21.333V2.66634C15.6619 2.04858 15.4149 1.45712 14.9781 1.02029C14.5413 0.583464 13.9498 0.336508 13.332 0.333008ZM13.6654 21.333C13.6654 21.4214 13.6302 21.5062 13.5677 21.5687C13.5052 21.6312 13.4204 21.6663 13.332 21.6663H2.66536C2.57696 21.6663 2.49217 21.6312 2.42966 21.5687C2.36715 21.5062 2.33203 21.4214 2.33203 21.333V2.66634C2.33203 2.57794 2.36715 2.49315 2.42966 2.43064C2.49217 2.36813 2.57696 2.33301 2.66536 2.33301H13.332C13.4204 2.33301 13.5052 2.36813 13.5677 2.43064C13.6302 2.49315 13.6654 2.57794 13.6654 2.66634V21.333Z" fill="#007BFF"/>
<path d="M8 15.333C7.60444 15.333 7.21776 15.4503 6.88886 15.6701C6.55996 15.8898 6.30362 16.2022 6.15224 16.5676C6.00087 16.9331 5.96126 17.3352 6.03843 17.7232C6.1156 18.1111 6.30608 18.4675 6.58579 18.7472C6.86549 19.0269 7.22186 19.2174 7.60982 19.2946C7.99778 19.3717 8.39992 19.3321 8.76537 19.1808C9.13082 19.0294 9.44318 18.773 9.66294 18.4441C9.8827 18.1152 10 17.7286 10 17.333C10 16.8026 9.78929 16.2939 9.41421 15.9188C9.03914 15.5437 8.53043 15.333 8 15.333Z" fill="#007BFF"/>
</svg>
