<svg width="16" height="16" viewBox="0 0 16 16" fill="none" xmlns="http://www.w3.org/2000/svg">
<path d="M2.80682 13.6799C2.74266 13.6806 2.679 13.6685 2.61951 13.6445C2.56001 13.6205 2.50586 13.5849 2.46015 13.5399C2.40776 13.4881 2.36744 13.4254 2.34209 13.3563C2.31673 13.2871 2.30697 13.2132 2.31349 13.1399L2.52015 10.5799C2.52902 10.461 2.58121 10.3495 2.66682 10.2666L10.0402 2.89322C10.451 2.50849 10.9976 2.30232 11.5602 2.31988C12.1191 2.32422 12.6554 2.54113 13.0602 2.92655C13.4484 3.32522 13.6717 3.85585 13.6853 4.41217C13.6989 4.96848 13.5018 5.50939 13.1335 5.92655L5.75349 13.3332C5.67089 13.4155 5.56273 13.4672 5.44682 13.4799L2.85349 13.7132L2.80682 13.6799ZM3.47349 10.8399L3.33349 12.6666L5.16015 12.4999L12.4268 5.21988C12.5685 5.0522 12.6591 4.84737 12.6878 4.62973C12.7165 4.4121 12.6821 4.19079 12.5887 3.99212C12.4953 3.79344 12.3469 3.62574 12.161 3.50894C11.9752 3.39214 11.7597 3.33115 11.5402 3.33322C11.3959 3.32406 11.2512 3.34414 11.1149 3.39225C10.9786 3.44037 10.8534 3.51552 10.7468 3.61322L3.47349 10.8399Z" fill="white"/>
</svg>
