<svg width="16" height="16" viewBox="0 0 16 16" fill="none" xmlns="http://www.w3.org/2000/svg">
<path d="M8.50016 7.50016V3.3335C8.50016 3.20089 8.44748 3.07371 8.35372 2.97994C8.25995 2.88617 8.13277 2.8335 8.00016 2.8335C7.86755 2.8335 7.74038 2.88617 7.64661 2.97994C7.55284 3.07371 7.50016 3.20089 7.50016 3.3335V7.50016H3.3335C3.20089 7.50016 3.07371 7.55284 2.97994 7.64661C2.88617 7.74038 2.8335 7.86755 2.8335 8.00016C2.8335 8.13277 2.88617 8.25995 2.97994 8.35372C3.07371 8.44748 3.20089 8.50016 3.3335 8.50016H7.50016V12.6668C7.50189 12.7989 7.55512 12.9251 7.64852 13.0185C7.74192 13.1119 7.86809 13.1651 8.00016 13.1668C8.13277 13.1668 8.25995 13.1142 8.35372 13.0204C8.44748 12.9266 8.50016 12.7994 8.50016 12.6668V8.50016H12.6668C12.7994 8.50016 12.9266 8.44748 13.0204 8.35372C13.1142 8.25995 13.1668 8.13277 13.1668 8.00016C13.1651 7.86809 13.1119 7.74192 13.0185 7.64852C12.9251 7.55512 12.7989 7.50189 12.6668 7.50016H8.50016Z" fill="#FFF"/>
</svg>
