<svg width="16" height="16" viewBox="0 0 16 16" fill="none" xmlns="http://www.w3.org/2000/svg">
<path d="M7.18016 12.2002C6.1873 12.2002 5.21673 11.9057 4.3912 11.3541C3.56566 10.8025 2.92224 10.0185 2.54228 9.10123C2.16233 8.18394 2.06292 7.17459 2.25662 6.2008C2.45031 5.22702 2.92842 4.33254 3.63048 3.63048C4.33254 2.92842 5.22702 2.45031 6.2008 2.25662C7.17459 2.06292 8.18394 2.16233 9.10123 2.54228C10.0185 2.92224 10.8025 3.56566 11.3541 4.3912C11.9057 5.21673 12.2002 6.1873 12.2002 7.18016C12.2002 7.83939 12.0703 8.49217 11.818 9.10123C11.5658 9.71028 11.196 10.2637 10.7298 10.7298C10.2637 11.196 9.71028 11.5658 9.10123 11.818C8.49217 12.0703 7.83939 12.2002 7.18016 12.2002ZM7.18016 3.16683C6.38903 3.16683 5.61567 3.40142 4.95788 3.84095C4.30008 4.28047 3.78739 4.90519 3.48464 5.63609C3.18189 6.367 3.10268 7.17126 3.25702 7.94719C3.41136 8.72311 3.79232 9.43584 4.35173 9.99525C4.91114 10.5547 5.62387 10.9356 6.3998 11.09C7.17572 11.2443 7.97999 11.1651 8.71089 10.8623C9.4418 10.5596 10.0665 10.0469 10.506 9.38911C10.9456 8.73131 11.1802 7.95795 11.1802 7.16682C11.1802 6.10596 10.7587 5.08854 10.0086 4.3384C9.25844 3.58825 8.24102 3.16683 7.18016 3.16683Z" fill="#0E1629"/>
<path d="M13.3346 13.8336C13.2689 13.8339 13.2038 13.8211 13.1431 13.7959C13.0825 13.7708 13.0274 13.7337 12.9813 13.687L10.2279 10.9336C10.1396 10.8389 10.0915 10.7135 10.0938 10.584C10.0961 10.4544 10.1486 10.3308 10.2402 10.2392C10.3318 10.1476 10.4554 10.0951 10.5849 10.0929C10.7145 10.0906 10.8398 10.1386 10.9346 10.227L13.6879 12.9803C13.7816 13.0741 13.8342 13.2011 13.8342 13.3336C13.8342 13.4661 13.7816 13.5932 13.6879 13.687C13.6418 13.7337 13.5867 13.7708 13.5261 13.7959C13.4654 13.8211 13.4003 13.8339 13.3346 13.8336Z" fill="#0E1629"/>
</svg>
