<svg width="32" height="32" viewBox="0 0 32 32" fill="none" xmlns="http://www.w3.org/2000/svg">
<path d="M16.0001 27.6666C15.8729 27.665 15.7467 27.6425 15.6268 27.5999C12.0057 25.9933 8.97633 23.2965 6.96138 19.8857C4.94644 16.4748 4.04639 12.5201 4.38679 8.57325C4.39845 8.35055 4.4852 8.13837 4.6329 7.9713C4.7806 7.80423 4.98054 7.69212 5.20013 7.65324C8.80523 7.10751 12.3071 6.01965 15.5868 4.42658C15.7166 4.36765 15.8576 4.33716 16.0001 4.33716C16.1427 4.33716 16.2836 4.36765 16.4135 4.42658C19.6932 6.01965 23.195 7.10751 26.8001 7.65324C27.0197 7.69212 27.2197 7.80423 27.3674 7.9713C27.5151 8.13837 27.6018 8.35055 27.6135 8.57325C27.9539 12.5201 27.0538 16.4748 25.0389 19.8857C23.0239 23.2965 19.9946 25.9933 16.3735 27.5999C16.2535 27.6425 16.1274 27.665 16.0001 27.6666ZM6.34679 9.47991C6.14819 12.8225 6.96346 16.1472 8.6859 19.0187C10.4083 21.8902 12.9577 24.1748 16.0001 25.5732C19.0426 24.1748 21.5919 21.8902 23.3144 19.0187C25.0368 16.1472 25.8521 12.8225 25.6535 9.47991C22.3102 8.91243 19.0616 7.8849 16.0001 6.42658C12.9386 7.8849 9.69004 8.91243 6.34679 9.47991Z" fill="#007BFF"/>
</svg>
