<svg width="21" height="20" viewBox="0 0 21 20" fill="none" xmlns="http://www.w3.org/2000/svg">
<path d="M9.62648 6.87517C9.4657 6.86287 9.31612 6.78808 9.20981 6.66683L7.54315 5.00017L5.87648 6.66683C5.83339 6.75706 5.76928 6.83563 5.68953 6.89595C5.60979 6.95627 5.51674 6.99657 5.41819 7.01348C5.31964 7.03039 5.21847 7.0234 5.12318 6.99312C5.02789 6.96283 4.94126 6.91012 4.87056 6.83942C4.79986 6.76872 4.74715 6.68209 4.71686 6.5868C4.68658 6.49151 4.67959 6.39034 4.6965 6.29179C4.71341 6.19324 4.75371 6.10019 4.81403 6.02045C4.87435 5.9407 4.95292 5.87659 5.04315 5.8335L7.12648 3.75017C7.24367 3.63312 7.40252 3.56738 7.56815 3.56738C7.73377 3.56738 7.89263 3.63312 8.00981 3.75017L10.0431 5.8335C10.1456 5.94809 10.2023 6.09643 10.2023 6.25017C10.2023 6.4039 10.1456 6.55224 10.0431 6.66683C9.93684 6.78808 9.78727 6.86287 9.62648 6.87517Z" fill="#0E1629"/>
<path d="M7.54297 16.4587C7.37788 16.4565 7.22016 16.39 7.10341 16.2732C6.98667 16.1565 6.92013 15.9987 6.91797 15.8337V4.16699C6.91797 4.00123 6.98382 3.84226 7.10103 3.72505C7.21824 3.60784 7.37721 3.54199 7.54297 3.54199C7.70873 3.54199 7.8677 3.60784 7.98491 3.72505C8.10212 3.84226 8.16797 4.00123 8.16797 4.16699V15.8337C8.16581 15.9987 8.09927 16.1565 7.98252 16.2732C7.86578 16.39 7.70806 16.4565 7.54297 16.4587Z" fill="#0E1629"/>
<path d="M14.2111 16.4582C14.129 16.4586 14.0476 16.4426 13.9718 16.4111C13.8959 16.3796 13.8272 16.3333 13.7694 16.2749L11.7111 14.1665C11.6209 14.1234 11.5423 14.0593 11.482 13.9796C11.4217 13.8998 11.3814 13.8068 11.3645 13.7082C11.3476 13.6097 11.3545 13.5085 11.3848 13.4132C11.4151 13.3179 11.4678 13.2313 11.5385 13.1606C11.6092 13.0899 11.6959 13.0372 11.7912 13.0069C11.8864 12.9766 11.9876 12.9696 12.0862 12.9865C12.1847 13.0034 12.2778 13.0438 12.3575 13.1041C12.4372 13.1644 12.5014 13.243 12.5444 13.3332L14.2111 14.9999L15.8778 13.3332C15.9209 13.243 15.985 13.1644 16.0647 13.1041C16.1445 13.0438 16.2375 13.0034 16.3361 12.9865C16.4346 12.9696 16.5358 12.9766 16.6311 13.0069C16.7264 13.0372 16.813 13.0899 16.8837 13.1606C16.9544 13.2313 17.0071 13.3179 17.0374 13.4132C17.0677 13.5085 17.0747 13.6097 17.0578 13.7082C17.0409 13.8068 17.0005 13.8998 16.9402 13.9796C16.8799 14.0593 16.8013 14.1234 16.7111 14.1665L14.6278 16.2499C14.5215 16.3711 14.3719 16.4459 14.2111 16.4582Z" fill="#0E1629"/>
<path d="M14.2109 16.4587C14.0458 16.4565 13.8881 16.39 13.7714 16.2732C13.6546 16.1565 13.5881 15.9987 13.5859 15.8337V4.16699C13.5859 4.00123 13.6518 3.84226 13.769 3.72505C13.8862 3.60784 14.0452 3.54199 14.2109 3.54199C14.3767 3.54199 14.5357 3.60784 14.6529 3.72505C14.7701 3.84226 14.8359 4.00123 14.8359 4.16699V15.8337C14.8338 15.9987 14.7672 16.1565 14.6505 16.2732C14.5337 16.39 14.376 16.4565 14.2109 16.4587Z" fill="#0E1629"/>
</svg>
