<svg width="16" height="16" viewBox="0 0 16 16" fill="none" xmlns="http://www.w3.org/2000/svg">
<path d="M13.3332 5.7998H2.6665C2.60084 5.7998 2.53582 5.78687 2.47516 5.76174C2.4145 5.73662 2.35938 5.69979 2.31295 5.65336C2.26652 5.60693 2.22969 5.55181 2.20456 5.49115C2.17944 5.43048 2.1665 5.36547 2.1665 5.2998C2.1665 5.23414 2.17944 5.16913 2.20456 5.10846C2.22969 5.0478 2.26652 4.99268 2.31295 4.94625C2.35938 4.89982 2.4145 4.86299 2.47516 4.83787C2.53582 4.81274 2.60084 4.7998 2.6665 4.7998H13.3332C13.4658 4.7998 13.593 4.85248 13.6867 4.94625C13.7805 5.04002 13.8332 5.1672 13.8332 5.2998C13.8332 5.43241 13.7805 5.55959 13.6867 5.65336C13.593 5.74713 13.4658 5.7998 13.3332 5.7998Z" fill="#E51C23"/>
<path d="M10.9597 13.8334H5.03967C4.8284 13.8478 4.61636 13.8202 4.41585 13.7521C4.21534 13.684 4.03035 13.5767 3.87159 13.4366C3.71284 13.2964 3.58349 13.1261 3.49103 12.9356C3.39858 12.7451 3.34487 12.5381 3.33301 12.3267V5.33336C3.33301 5.20076 3.38569 5.07358 3.47945 4.97981C3.57322 4.88604 3.7004 4.83336 3.83301 4.83336C3.96562 4.83336 4.09279 4.88604 4.18656 4.97981C4.28033 5.07358 4.33301 5.20076 4.33301 5.33336V12.3267C4.33301 12.6 4.64634 12.8334 4.99967 12.8334H10.9197C11.293 12.8334 11.5863 12.6 11.5863 12.3267V5.33336C11.5863 5.19015 11.6432 5.0528 11.7445 4.95153C11.8458 4.85026 11.9831 4.79336 12.1263 4.79336C12.2696 4.79336 12.4069 4.85026 12.5082 4.95153C12.6094 5.0528 12.6663 5.19015 12.6663 5.33336V12.3267C12.6545 12.5381 12.6008 12.7451 12.5083 12.9356C12.4159 13.1261 12.2865 13.2964 12.1278 13.4366C11.969 13.5767 11.784 13.684 11.5835 13.7521C11.383 13.8202 11.1709 13.8478 10.9597 13.8334ZM11.0397 5.1667C10.9738 5.16759 10.9083 5.15527 10.8473 5.13046C10.7862 5.10565 10.7307 5.06886 10.6841 5.02225C10.6375 4.97564 10.6007 4.92016 10.5759 4.8591C10.5511 4.79803 10.5388 4.73261 10.5397 4.6667V3.67336C10.5397 3.40003 10.2197 3.1667 9.87301 3.1667H6.14634C5.77967 3.1667 5.47967 3.40003 5.47967 3.67336V4.6667C5.47967 4.79931 5.427 4.92648 5.33323 5.02025C5.23946 5.11402 5.11228 5.1667 4.97967 5.1667C4.84707 5.1667 4.71989 5.11402 4.62612 5.02025C4.53235 4.92648 4.47967 4.79931 4.47967 4.6667V3.67336C4.50549 3.25424 4.69436 2.86187 5.00587 2.58027C5.31737 2.29867 5.72674 2.15022 6.14634 2.1667H9.85301C10.276 2.14482 10.6905 2.29084 11.0063 2.573C11.3222 2.85515 11.5139 3.25062 11.5397 3.67336V4.6667C11.5406 4.73292 11.5283 4.79865 11.5035 4.86009C11.4788 4.92152 11.4421 4.97743 11.3956 5.02457C11.3491 5.07171 11.2937 5.10913 11.2326 5.13468C11.1715 5.16022 11.1059 5.17337 11.0397 5.17336V5.1667Z" fill="#E51C23"/>
<path d="M6.81299 11.3335C6.68092 11.3317 6.55474 11.2785 6.46134 11.1851C6.36795 11.0917 6.31471 10.9655 6.31299 10.8335V7.81348C6.31299 7.68087 6.36567 7.55369 6.45943 7.45992C6.5532 7.36615 6.68038 7.31348 6.81299 7.31348C6.9456 7.31348 7.07277 7.36615 7.16654 7.45992C7.26031 7.55369 7.31299 7.68087 7.31299 7.81348V10.8268C7.31387 10.893 7.30159 10.9588 7.27686 11.0202C7.25213 11.0816 7.21544 11.1375 7.16892 11.1847C7.1224 11.2318 7.06698 11.2692 7.00588 11.2948C6.94478 11.3203 6.87921 11.3335 6.81299 11.3335Z" fill="#E51C23"/>
<path d="M9.18652 11.3335C9.05392 11.3335 8.92674 11.2808 8.83297 11.187C8.7392 11.0933 8.68652 10.9661 8.68652 10.8335V7.81348C8.68652 7.68087 8.7392 7.55369 8.83297 7.45992C8.92674 7.36615 9.05392 7.31348 9.18652 7.31348C9.31913 7.31348 9.44631 7.36615 9.54008 7.45992C9.63385 7.55369 9.68652 7.68087 9.68652 7.81348V10.8268C9.68654 10.96 9.63407 11.0879 9.54049 11.1827C9.44691 11.2776 9.31974 11.3317 9.18652 11.3335Z" fill="#E51C23"/>
</svg>
